<mxfile host="app.diagrams.net" modified="2023-04-21T03:32:08.844Z" agent="Mozilla/5.0 (Windows NT 10.0; Win64; x64) AppleWebKit/537.36 (KHTML, like Gecko) Chrome/112.0.0.0 Safari/537.36 Edg/112.0.1722.48" etag="LSG_g5olqLLeCsWV5DZ0" version="21.2.1" type="github">
  <diagram name="第 1 页" id="POkE39uzaA0uQ5JahgnA">
    <mxGraphModel dx="1329" dy="834" grid="1" gridSize="10" guides="1" tooltips="1" connect="1" arrows="1" fold="1" page="1" pageScale="1" pageWidth="827" pageHeight="1169" math="0" shadow="0">
      <root>
        <mxCell id="0" />
        <mxCell id="1" parent="0" />
      </root>
    </mxGraphModel>
  </diagram>
</mxfile>
